<svg id="Layer_1" data-name="Layer 1" xmlns="http://www.w3.org/2000/svg" viewBox="0 0 200 150"><defs><style>.cls-1{fill:#aba5d2;}.cls-2{fill:#fff;stroke:#aba5d2;stroke-miterlimit:10;}</style></defs><title>speech-bubbles</title><path class="cls-1" d="M179.9,13.48l-155.6-.3a9.26,9.26,0,0,0-9.17,9.35L15,110.79a9.26,9.26,0,0,0,9.13,9.38l25.61-.35-5.86,21,28.33-21,107.52.65a9.26,9.26,0,0,0,9.17-9.35L189,22.86A9.26,9.26,0,0,0,179.9,13.48Z"/><path class="cls-2" d="M175.9,9.48,20.3,9.17a9.26,9.26,0,0,0-9.17,9.35L11,106.79a9.26,9.26,0,0,0,9.13,9.38l21.13-.29a3.35,3.35,0,0,1,3.28,4.25l-4.66,16.68,24.9-18.46a12.79,12.79,0,0,1,7.7-2.52l103.25.63a9.26,9.26,0,0,0,9.17-9.35L185,18.86A9.26,9.26,0,0,0,175.9,9.48Z"/></svg>