<svg id="Layer_1" data-name="Layer 1" xmlns="http://www.w3.org/2000/svg" viewBox="0 0 800 273"><defs><style>.cls-1{fill:#ff8686;}.cls-2{fill:#aba5d2;}.cls-3,.cls-5,.cls-6{fill:#fff;stroke-miterlimit:10;}.cls-3{stroke:#ff8686;stroke-width:1.33px;}.cls-4{fill:#b3b3f2;}.cls-5{stroke:#b3b3f2;stroke-width:1.07px;}.cls-6{stroke:#aba5d2;stroke-width:1.12px;}.cls-7{font-size:13px;fill:#939598;font-family:SpaceMono-Regular, Space Mono;}</style></defs><title>home-bubbles</title><path class="cls-1" d="M503.66,6.55l-91-.18a5.41,5.41,0,0,0-5.36,5.46l-.1,51.6a5.41,5.41,0,0,0,5.34,5.48l15-.21L424.13,81l16.56-12.28,62.85.38a5.41,5.41,0,0,0,5.36-5.46L509,12A5.41,5.41,0,0,0,503.66,6.55Z"/><path class="cls-2" d="M159.22,12.12l140.36-.27a8.35,8.35,0,0,1,8.27,8.43L308,99.91a8.35,8.35,0,0,1-8.24,8.46L274,108.06,273.27,127l-19.59-18.94-94.28.59a8.35,8.35,0,0,1-8.27-8.43L151,20.59A8.35,8.35,0,0,1,159.22,12.12Z"/><path class="cls-1" d="M506.69,81.55l-207-.4a12.32,12.32,0,0,0-12.2,12.44L287.24,211a12.32,12.32,0,0,0,12.15,12.48l34.08-.47L325.66,251l37.7-27.94,143.07.87a12.32,12.32,0,0,0,12.2-12.44L518.84,94A12.32,12.32,0,0,0,506.69,81.55Z"/><path class="cls-3" d="M501.37,76.22l-207-.4a12.32,12.32,0,0,0-12.2,12.44l-.22,117.46a12.32,12.32,0,0,0,12.15,12.48l28.12-.39a4.46,4.46,0,0,1,4.36,5.66l-6.2,22.2,33.14-24.56a17,17,0,0,1,10.24-3.35l137.39.83a12.32,12.32,0,0,0,12.2-12.44l.22-117.46A12.32,12.32,0,0,0,501.37,76.22Z"/><path class="cls-2" d="M624,141l85.51-.17a5.09,5.09,0,0,1,5,5.14l.09,48.51a5.09,5.09,0,0,1-5,5.16l-15.72-.19L693.48,211l-11.93-11.54-57.44.36a5.09,5.09,0,0,1-5-5.14L619,146.17A5.09,5.09,0,0,1,624,141Z"/><path class="cls-4" d="M59.22,127.12l140.36-.27a8.35,8.35,0,0,1,8.27,8.43l.15,79.63a8.35,8.35,0,0,1-8.24,8.46L174,223.06,173.27,242l-19.59-18.94-94.28.59a8.35,8.35,0,0,1-8.27-8.43L51,135.59A8.35,8.35,0,0,1,59.22,127.12Z"/><path class="cls-4" d="M720,203.38l68-.13a4,4,0,0,1,4,4.08l.07,38.55a4,4,0,0,1-4,4.1l-12.49-.15-.33,9.17-9.48-9.17-45.65.28a4,4,0,0,1-4-4.08L716,207.48A4,4,0,0,1,720,203.38Z"/><path class="cls-4" d="M721.67,21.78l-166.45-.32a9.9,9.9,0,0,0-9.8,10l-.17,94.43a9.9,9.9,0,0,0,9.77,10l27.4-.38L576.14,158l30.31-22.46,115,.7a9.9,9.9,0,0,0,9.8-10l.17-94.43A9.9,9.9,0,0,0,721.67,21.78Z"/><path class="cls-5" d="M717.39,17.5l-166.45-.32a9.9,9.9,0,0,0-9.8,10L541,121.6a9.9,9.9,0,0,0,9.77,10l22.6-.31a3.59,3.59,0,0,1,3.5,4.55l-5,17.85L598.5,134a13.68,13.68,0,0,1,8.23-2.69l110.45.67a9.9,9.9,0,0,0,9.8-10l.17-94.43A9.9,9.9,0,0,0,717.39,17.5Z"/><path class="cls-2" d="M65.24,41,240,40.62a10.4,10.4,0,0,1,10.3,10.5l.18,99.15a10.4,10.4,0,0,1-10.26,10.54l-32.14-.39L207.26,184l-24.39-23.59-117.4.73a10.4,10.4,0,0,1-10.3-10.5L55,51.49A10.4,10.4,0,0,1,65.24,41Z"/><path class="cls-6" d="M59.63,35.34,234.41,35a10.4,10.4,0,0,1,10.3,10.5l.18,99.15a10.4,10.4,0,0,1-10.26,10.54l-26.43-.32a5.84,5.84,0,0,0-5.91,5.63l-.65,17.89-18.56-17.95a19.88,19.88,0,0,0-13.95-5.59l-109.29.68A10.4,10.4,0,0,1,49.55,145l-.18-99.15A10.4,10.4,0,0,1,59.63,35.34Z"/><text class="cls-7" transform="translate(71.19 82.31)">What identity are <tspan x="0" y="15.6">you most aware of </tspan><tspan x="0" y="31.2">every day?</tspan></text><text class="cls-7" transform="translate(561.19 64.31)">What identity are <tspan x="0" y="15.6">you least aware of </tspan><tspan x="0" y="31.2">every day?</tspan></text><text class="cls-7" transform="translate(320.19 125.05)">Which part of your <tspan x="0" y="15.6">identity do you </tspan><tspan x="0" y="31.2">believe is the most </tspan><tspan x="0" y="46.8">misunderstood by </tspan><tspan x="0" y="62.4">others?</tspan></text><path class="cls-1" d="M116.66,184.55l-91-.18a5.41,5.41,0,0,0-5.36,5.46l-.1,51.6a5.41,5.41,0,0,0,5.34,5.48l15-.21L37.13,259l16.56-12.28,62.85.38a5.41,5.41,0,0,0,5.36-5.46L122,190A5.41,5.41,0,0,0,116.66,184.55Z"/><path class="cls-1" d="M662.09,176.61l-117.78-.23a7,7,0,0,0-6.94,7.07l-.12,66.82a7,7,0,0,0,6.91,7.1l19.38-.27L559.11,273l21.44-15.9,81.38.49a7,7,0,0,0,6.94-7.07l.12-66.82A7,7,0,0,0,662.09,176.61Z"/></svg>