<svg id="Layer_1" data-name="Layer 1" xmlns="http://www.w3.org/2000/svg" viewBox="0 0 800 193"><defs><style>.cls-1,.cls-10,.cls-12,.cls-2,.cls-4,.cls-5,.cls-6,.cls-8{fill:#fff;stroke-miterlimit:10;}.cls-1,.cls-12,.cls-4{stroke:#ff8686;}.cls-1,.cls-2,.cls-6{stroke-width:1.14px;}.cls-1,.cls-12,.cls-2,.cls-5,.cls-6{opacity:0.79;}.cls-10,.cls-2,.cls-5{stroke:#aba5d2;}.cls-3{fill:#ff8686;}.cls-4{stroke-width:1.01px;}.cls-5{stroke-width:1.16px;}.cls-6,.cls-8{stroke:#b3b3f2;}.cls-7{fill:#b3b3f2;}.cls-8{stroke-width:0.82px;}.cls-9{fill:#aba5d2;}.cls-10{stroke-width:0.86px;}.cls-11{font-size:11px;fill:#939598;font-family:SpaceMono-Regular, Space Mono;}.cls-12{stroke-width:0.95px;}</style></defs><title>home-bubbles</title><path class="cls-1" d="M480,4.3l-69.31-.13a4.12,4.12,0,0,0-4.08,4.16l-.07,39.32a4.12,4.12,0,0,0,4.07,4.18L422,51.67,419.38,61,432,51.67l47.89.29A4.12,4.12,0,0,0,484,47.8L484,8.48A4.12,4.12,0,0,0,480,4.3Z"/><path class="cls-2" d="M220.51,11.93l89.32-.17a5.31,5.31,0,0,1,5.26,5.36l.09,50.67a5.31,5.31,0,0,1-5.24,5.39L293.52,73,293.08,85,280.62,73l-60,.37A5.31,5.31,0,0,1,215.36,68l-.09-50.67A5.31,5.31,0,0,1,220.51,11.93Z"/><path class="cls-3" d="M482.29,61.44l-157.76-.3a9.39,9.39,0,0,0-9.29,9.48l-.16,89.5a9.39,9.39,0,0,0,9.26,9.51l26-.36-5.94,21.29,28.72-21.29,109,.66a9.39,9.39,0,0,0,9.29-9.48l.16-89.5A9.39,9.39,0,0,0,482.29,61.44Z"/><path class="cls-4" d="M478.23,57.39l-157.76-.3a9.39,9.39,0,0,0-9.29,9.48l-.16,89.5a9.39,9.39,0,0,0,9.26,9.51l21.42-.29a3.4,3.4,0,0,1,3.32,4.31l-4.72,16.92,25.25-18.71a13,13,0,0,1,7.8-2.55l104.69.63a9.39,9.39,0,0,0,9.29-9.48l.16-89.5A9.39,9.39,0,0,0,478.23,57.39Z"/><path class="cls-5" d="M644.16,93l66.32-.13a4,4,0,0,1,3.91,4l.07,37.63a4,4,0,0,1-3.89,4l-12.19-.15-.32,9-9.25-9-44.55.28a4,4,0,0,1-3.91-4L640.27,97A4,4,0,0,1,644.16,93Z"/><path class="cls-6" d="M71.47,82.92l107-.21a6.36,6.36,0,0,1,6.3,6.42l.11,60.67a6.36,6.36,0,0,1-6.28,6.45L158.89,156l-.52,14.43L143.45,156l-71.84.45a6.36,6.36,0,0,1-6.3-6.42l-.11-60.67A6.36,6.36,0,0,1,71.47,82.92Z"/><path class="cls-6" d="M731.12,127.78l51.78-.1a3.08,3.08,0,0,1,3,3.11l.05,29.37a3.08,3.08,0,0,1-3,3.12l-9.52-.12-.25,7-7.22-7-34.78.22a3.08,3.08,0,0,1-3-3.11l-.05-29.37A3.08,3.08,0,0,1,731.12,127.78Z"/><path class="cls-7" d="M666.17,15.9l-126.82-.24a7.55,7.55,0,0,0-7.47,7.62l-.13,71.95a7.55,7.55,0,0,0,7.44,7.65l20.87-.29-4.78,17.12,23.09-17.12,87.64.53a7.55,7.55,0,0,0,7.47-7.62l.13-71.95A7.55,7.55,0,0,0,666.17,15.9Z"/><path class="cls-8" d="M662.91,12.64l-126.82-.24A7.55,7.55,0,0,0,528.61,20L528.48,92a7.55,7.55,0,0,0,7.44,7.65l17.22-.24a2.73,2.73,0,0,1,2.67,3.47l-3.8,13.6,20.3-15a10.43,10.43,0,0,1,6.27-2.05l84.16.51a7.55,7.55,0,0,0,7.47-7.62l.13-71.95A7.55,7.55,0,0,0,662.91,12.64Z"/><path class="cls-9" d="M145.92,30.51l133.18-.26a7.92,7.92,0,0,1,7.84,8l.14,75.55a7.92,7.92,0,0,1-7.82,8l-24.49-.3-.65,18-18.58-18-89.46.56a7.92,7.92,0,0,1-7.84-8l-.14-75.55A7.92,7.92,0,0,1,145.92,30.51Z"/><path class="cls-10" d="M141.64,26.23,274.82,26a7.92,7.92,0,0,1,7.84,8l.14,75.55a7.92,7.92,0,0,1-7.82,8l-20.14-.25a4.45,4.45,0,0,0-4.5,4.29l-.49,13.63-14.14-13.68a15.15,15.15,0,0,0-10.63-4.26l-83.27.52a7.92,7.92,0,0,1-7.84-8l-.14-75.55A7.92,7.92,0,0,1,141.64,26.23Z"/><text class="cls-11" transform="translate(150.45 62.95)">What identity are <tspan x="0" y="13.2">you most aware of </tspan><tspan x="0" y="26.4">every day?</tspan></text><text class="cls-11" transform="translate(538.89 49.24)">What identity are <tspan x="0" y="13.2">you least aware of </tspan><tspan x="0" y="26.4">every day?</tspan></text><text class="cls-11" transform="translate(336 90.52)">Which part of your <tspan x="0" y="13.2">identity do you </tspan><tspan x="0" y="26.4">believe is the most </tspan><tspan x="0" y="39.6">misunderstood by </tspan><tspan x="0" y="52.8">others?</tspan></text><path class="cls-1" d="M92.71,126.68l-69.31-.13a4.12,4.12,0,0,0-4.08,4.16L19.25,170a4.12,4.12,0,0,0,4.07,4.18l11.41-.16-2.61,9.35,12.62-9.35,47.89.29a4.12,4.12,0,0,0,4.08-4.16l.07-39.32A4.12,4.12,0,0,0,92.71,126.68Z"/><path class="cls-12" d="M661.38,120.6l-74.92-.14a4.46,4.46,0,0,0-4.41,4.5l-.08,42.5a4.46,4.46,0,0,0,4.4,4.52l12.33-.17-2.82,10.11,13.64-10.11,51.77.31a4.46,4.46,0,0,0,4.41-4.5l.08-42.5A4.46,4.46,0,0,0,661.38,120.6Z"/></svg>