<svg id="Layer_1" data-name="Layer 1" xmlns="http://www.w3.org/2000/svg" viewBox="0 0 200 150"><defs><style>.cls-1{fill:#aba5d2;}.cls-2{fill:#fff;stroke:#aba5d2;stroke-miterlimit:10;}</style></defs><title>speech-bubbles</title><path class="cls-1" d="M24.6,14l155.6-.3A9.26,9.26,0,0,1,189.37,23l.16,88.27a9.26,9.26,0,0,1-9.13,9.38l-28.61-.35-.76,21-21.71-21L24.8,121a9.26,9.26,0,0,1-9.17-9.35l-.16-88.27A9.26,9.26,0,0,1,24.6,14Z"/><path class="cls-2" d="M19.6,9l155.6-.3A9.26,9.26,0,0,1,184.37,18l.16,88.27a9.26,9.26,0,0,1-9.13,9.38l-23.53-.29a5.2,5.2,0,0,0-5.26,5L146,136.33l-16.52-16a17.7,17.7,0,0,0-12.42-5L19.8,116a9.26,9.26,0,0,1-9.17-9.35l-.16-88.27A9.26,9.26,0,0,1,19.6,9Z"/></svg>